<svg id="Layer_1" data-name="Layer 1" xmlns="http://www.w3.org/2000/svg" viewBox="0 0 1282.67 1282.67"><defs><style>.cls-1{fill:#fff;}</style></defs><rect class="cls-1" width="1282.67" height="1282.67" rx="286.67"/><path d="M359.58,711.55c-7.85-16.75-7.68-34.22-2.63-53.28l-13.52,10.28-1.49-1.36c11.42-29.66,22.84-59.33,34.69-90.08L358.14,606c-.92-13.4,3.82-25.18,9.24-36.67s11.22-22.53,15.8-34.7l-15.55,16.82-1.76-1.19c6.51-11.75,13-23.49,19.68-35.49-1.41-.32-2-.58-2.07-.45-8.35,10-17.05,19.76-24.68,30.29-1.79,2.48-.89,7.94.44,11.37a12.52,12.52,0,0,1-.74,11.42c-1.9,3.54-3.66,7.16-5.37,10.8-4.24,9-7,18.15-5.3,28.51,2.08,12.76-2.65,24.59-7,36.28-2.52,6.77-5.78,13.28-8.13,20.1-1.58,4.62-2.16,9.6-3.36,15.2h13c.47,7.49.86,14.76,1.4,22,1,14,14.45,28.1,29.28,28.92.76,0,1.82.06,2.23.53,8.52,9.86,18.69,4.48,28.5,3.37,3.3-.38,6.76.77,10.13.68,5.93-.15,12,0,17.71-1.27,8.1-1.85,16.23-2.43,24.38-3.43,10.39-1.28,20.39-5.55,30.6-8.42,8.87-2.49,17.88-4.51,26.65-7.32,5.63-1.81,10.93-4.67,17.35-7.48,1.39,8.66,3.29,17.07,3.94,25.58.48,6.21,2.79,8.42,9.16,7.4,15.8-2.53,31.66-4.74,47.52-6.88,1.69-.23,3.56.87,6.51,1.67,4.5-.69,10.68-2,16.92-2.5a99.69,99.69,0,0,1,18.16.54c-10.74,4.93-23.06,5.67-32.46,13l52.94-9.37,1,2.7c-5.68,6.28-15.52,5.27-22.48,11.42l19.33-4c.5,5.63,1,10.4,1.33,15.18,1.27,19.51,12,33.41,28.13,42.36,17.12,9.5,35.39,17,53.26,25.12,5.43,2.47,8.93,9.48,7.65,18.15l-6.33-4.33c-1.36,12.74,2,26.06-3.66,38.78-1.68-9.65-3.37-19.29-4.93-28.23-1,25.16-2.06,50.9-3.09,76.64l-1.62.18q-1.38-3-2.78-6l-1.1.06-2.78,27.87c-1.48-2.63-2.32-4.13-4-7.1-1.11,6.79-1.9,12.05-2.85,17.29-.81,4.52-2.09,9-2.66,13.51-1.07,8.57,1.61,16.31,8.42,21.39a224,224,0,0,0,25.42,16c13.13,7.31,26.82,13.66,39.84,21.17,11.62,6.71,15.73,32.13,7.68,43a16.58,16.58,0,0,0-2.53,4.72c-2.33,7.46-12,13.37-19.63,11.87-7.31-1.44-12.5-8-13.23-16.62-1-12.11-6.08-16.15-18.94-14.78,1.48,1.6,2.88,3,4.11,4.46,3.89,4.76,4.37,11.32,1.23,15.63-3.57,4.9-9.69,6.93-15.56,3.65A103.81,103.81,0,0,1,705.56,1073c-6-5.19-11.9-10.07-21.94-10.71,2.82,2.62,4.53,4.37,6.4,5.9,7.31,6,14.85,11.69,22,17.89,11.45,10,18.37,23.26,25.4,36.38,3.24,6,3.58,12.18-.22,18.34-1.78,2.89-2.38,6.64-4.52,9.15-3,3.48-6.5,6.92-10.5,9-7.56,4-15.77,6.69-23.47,10.42S679.47,1167,675.81,1157a29.57,29.57,0,0,1-1.32-5.26c-1.18-7-5.72-10.61-13-13.15.35,4,.62,7.24.94,10.5.63,6.35-3.23,11.19-9.59,12-8.42,1.08-15.46-3.78-16.94-12.51-1.54-9.1-2-18.38-3.62-27.45a17.88,17.88,0,0,0-4.94-9.67c-5.8-5.21-12.38-9.56-18.67-14.22a50.73,50.73,0,0,1-17-20.74c-5.15-11.83-3.43-23,2.21-34.15a34.24,34.24,0,0,0,2.83-10.17c1.69-11.12,3.11-22.28,4.64-33.43.22-1.57.44-3.13.73-5.24l-5.37,1.88c2.83-10.73,5.49-20.81,8.14-30.88l-.87-.36-10.24,14.4-1.55-.77q2.93-11.14,5.86-22.31c1.93-7.3,3.86-14.6,4.62-22.66-2.62,2.78-5.23,5.57-9.07,9.66.09-12.71,8.9-21.45,9.75-33.5l-9.8,11.64-1.39-.51c1.1-8.8,2.2-17.59,3.38-27.1l-4,2.35c-.55-10.49,1.32-21.27-7.08-30.47-.63,10.27-1.63,19.54-1.6,28.81,0,6.84-2.22,10.89-9,12.76-7.88,2.17-15.58,5-23.68,7.62,1.06,15,2.24,30,3.12,45,.76,13,1.11,26.07,1.77,39.1.38,7.53.85,15.07,1.67,22.56.16,1.52,2.06,2.86,3.16,4.28.78-1.55,2-3,2.27-4.67.54-3.3.57-6.69.88-10.93l23.57,2.87c1.33,12.56-2.05,22.17-14.7,27.09-4.23,1.65-7.92,4.68-11.73,7,1.82,26.67,3.54,53,5.41,79.28q3.12,44,6.48,87.9a112.83,112.83,0,0,0,1.4,11.3c1,5.42-1.62,8.75-6,11.3-12.51,7.29-26.16-.39-27.2-14.76-1.52-21-3.66-41.95-5.66-62.92-1.57-16.53-3.33-33-5-49.74l-68.83-14.28c-.43,5.63-.87,10.56-1.16,15.49-.44,7.56-2.9,10.44-10.54,12.09-9.36,2-13.12-.29-14.24-9.64-.71-5.95-.22-12-.81-18-.19-1.89-1.84-4.94-3.26-5.21-17.91-3.5-35.89-6.59-53.86-9.73a53.94,53.94,0,0,0-5.9-.31l13,9c-10.54,20.86-30.16,30.22-50.8,38.81-.85,17.24-1.85,34.76-2.52,52.29-.32,8.52-3,12.38-11.35,14.64-7.92,2.16-17.92-.93-21-6.65a9.42,9.42,0,0,1-1-4.62c.54-14.21.81-28.45,2-42.61.48-5.66-1.44-5.83-5.95-5.64-7.71.32-15.45-.16-23.17-.21-25.32-.17-43.23-16-62.22-29.44-5.89-4.19-11.61-8.6-17.34-13a27.55,27.55,0,0,1-3.17-3.6l16.83,3.56,1.3-2c-13.19-6.64-25.28-14.42-31.42-28.6l8.83,5.54c-1.78-3.64-2.72-6.09-4.08-8.27a108.36,108.36,0,0,1-16.89-60.83c.56-19.74,1.32-40.21,9.25-59.12,2.59-6.17,5.5-12.22,8.5-18.21.49-1,2.19-1.35,4.82-2.84,1.43-6.24,5.65-12.44,11.89-18.15,7.45-6.82,12.44-16.46,20.18-22.83,17.21-14.14,35.48-27,53.31-40.39,4.18-3.14,8.75-5.89,12.34-9.6,1.65-1.69,2.29-5.45,1.8-8-4.28-21.84-8.05-43.83-13.61-65.35-21.31-82.43-43.31-164.7-64.9-247.07-7.89-30.08-15.39-60.27-23-90.43-2.19-8.67,1.87-15,8.69-19.5,7.29-4.84,15.41-5.82,23.43-2a11.08,11.08,0,0,1,5.3,6.18c2,6.85,6.75,6.85,12.26,6.33,23.91-2.26,47.8-4.6,71.73-6.56,10.54-.86,21.14-.94,31.71-1.21,3.85-.1,5.5-1.54,6.08-5.55,1.26-8.73,8-14.16,17.09-14.48,8.28-.3,13.09,4.76,16.67,12.76,4.82,10.8-3.81,16.45-7.95,24.42-1.6-5.92-3.08-11.87-4.86-17.72a33.27,33.27,0,0,0-3.77-8.72c-.62-.93-3.74-1.15-4.95-.42-.93.56-1.25,3.26-.85,4.74,2.5,9.2,5.35,18.3,7.87,27.48a5.26,5.26,0,0,1-1,3.89c-7.46,10.22-14.92,20.45-22.71,30.41a10.44,10.44,0,0,1-6.5,3.29c-15.94,1.78-32,2.69-47.86,5-10.47,1.5-20.7,4.73-31,7.32a9.32,9.32,0,0,0-5.38,3.8l85.87-12.73c-.84,10.45-2,11.14-11.27,12.21-14.89,1.71-29.81,3.41-44.55,6-11.17,2-22,5.61-33.13,8.14-3.74.85-4.6,2.6-3.78,5.91,1.64,6.62,3.12,13.29,4.94,19.87,3.91,14.12,8.08,28.17,12,42.3,1.49,5.45,4.13,7.35,9.95,5.71,10-2.83,20.27-4.72,30.31-7.47,3.38-.92,5.54-.13,5.65,2.88.08,1.89-1.75,5.1-3.37,5.59-5.93,1.79-12.2,2.41-18.21,4-5.84,1.53-11.51,3.7-17.26,5.6l.7,2.64,38.53-7.81c-2.49,11.44-4.61,22.19-7.35,32.79-.45,1.73-3.45,3.1-5.54,4a136.35,136.35,0,0,1-14.57,5.67c-4.07,1.26-4.5,3.19-3.42,7.11q11.37,41.24,22.19,82.62c1.39,5.32,4,5.94,8.74,4.61,7.47-2.09,8.21-1.46,9.95,5.71l-13.81,5.45.55,2.16,13.76-.73c1.06,6.07,2.15,12.3,3.23,18.53a36.21,36.21,0,0,0,1,5.93c1.3,3.64.24,5.7-3.49,6.61-5.83,1.42-6.39,5-5.15,10.43,3.5,15.42,6.39,31,9.72,47.44l18-7.24c4.17,5,4.94,12.4,13.29,15.07-3-14.16-5.83-27.26-8.64-40.36l-1.09,0-2.75,12.11c-5.17-5.42-2.69-10.91-2.83-15.88-.16-5.38,0-10.76,0-17.37-1.59,3.2-2.71,5.44-3.82,7.69l-1.24-.28V722.6l-.77-.37c-1,3-1.91,5.92-3.45,10.68-2.27-14.55-4.73-27.46-6.19-40.48a282.13,282.13,0,0,1-1.58-40.3L315,655.39l-1.43-.3c.54-6.83,1.09-13.66,1.5-18.75-1.49-2.47-3-3.77-2.81-4.85,1.15-8.32,2.6-16.6,4-24.89.26-1.55.69-3.06,1-4.6l-1.43-.84-10.42,15.68-1.92-.55c3.31-13.38,5.87-27,10.14-40.08s10.28-25.84,15.2-37.93l-13.57,12.26c2.42-12,10.59-21.82,14.61-33.64l-11.66,10.37-1.6-1.28,16.32-23.1-1.43-.44c.13-1.87-.41-4.2.5-5.52,5.39-7.74,11.1-15.25,16.73-22.82,1.53-2.05,3.15-4,4-7.08l-11.38,5.65c6.28-14.15,18.71-20.57,27.79-30.87l-4.61-.59c6.8-13.33,22.82-15.12,32.64-26.62L382,418.37c8.51-13.25,23.28-13,33.18-21.47H404.24l-.84-1.74c2-1.52,3.84-3.63,6.12-4.45,8.1-2.92,16.33-5.55,24.6-8,3.57-1.06,5.18-2.61,3.12-6.62l10.59-2.43-11-6.94,13.52-3.66c-3.84-5.47-7.67-10.12-10.62-15.28-10.25-17.93-12.59-36.68-4.1-56,4.58-10.4,12.36-18.46,23.35-21.23,10.15-2.55,15.89-8.57,20.11-18.08l-8.95,3.2c1.71-3.09,2.49-5.11,3.78-6.71,7.1-8.77,13.92-17.82,21.68-26,4.15-4.38,9.71-7.69,15.13-10.55,14.42-7.6,29.51-13.73,45.84-15.6a125.69,125.69,0,0,1,46.36,3.21A158.74,158.74,0,0,1,649.21,220c9.26,6,18.38,12.78,23.27,23.63,1.92,4.26,5.78,7.62,8.12,11.75s3.89,8.69,5.79,13.06c3.21-1.29,6.75-3.35,10.54-4.08,7.43-1.44,12.92,2.15,16.56,9,4.49,8.47,3.71,17.53,1.65,25.89a521.87,521.87,0,0,1-16,53.94c-2.92,8-9.18,15-14.52,21.94-3.32,4.33-4.42,8.28-2.07,13.26,5.26,11.19,5.16,22.85,3.15,34.76-.3,1.8,1,5.44,2.16,5.68,16.56,3.58,33.21,6.73,50.81,10.17,0-3.76,0-6.53,0-9.3.12-7.08,2.36-10.14,9.33-10.9a74.49,74.49,0,0,1,16.82,0c7.15.87,10.72,7.23,8.69,14.1-5.11,17.33-21.33,27.14-39.27,23.41-16.23-3.37-32.39-7.11-48.6-10.63-2.11-.46-4.29-.6-6.18-.85-8.47,17.9-22.39,28.85-40.61,34.46-3.24,1-7.08-.08-10.63.1-2.31.12-4.59.77-8.66,1.5L594.43,469.4q3.18,11.76,6.33,23.47l-1.07.65-7-5.48c4.1,13.4,7.82,25.58,11.54,37.76l-1.66.76-7-8.54-1.42.49q5.12,17.24,10.24,34.47l-1,.67-8.54-9.72-1.58,1,12.52,27.61c5-2.32,9.05-4.29,13.18-6.16,32-14.45,59.13-35.47,83.24-60.73a113.79,113.79,0,0,1,32.27-23.9c12.77-6.29,24.89-13.89,37.46-20.6s18.39-5.41,28.12,5a20.7,20.7,0,0,0,5.28,3.88c17.19,9.29,30.73,33.6,26.77,52.49-1.54,7.31-7.57,15-13.7,19.71-8.59,6.65-18.9,11.33-29,15.72-11.66,5.08-17.94-.24-16.24-12.71.16-1.18.13-2.39.22-4.39a41.06,41.06,0,0,0-22.2,8c-6.12,4.45-10.88,10.83-16.05,16.52-9.38,10.34-9.49,10.72-22,4.48-9-4.51-18.14-5.51-27.43-2.17-14.9,5.35-29.56,11.37-44.41,16.86-13.88,5.13-27,12.59-42.31,13.37a15.94,15.94,0,0,0-6.33,1.81c-11.08,5.67-22.8,8.21-35.19,9.57-17.36,1.9-34.47,6-51.82,8-15.53,1.84-31.35,1.41-46.85,3.48-18.93,2.53-37.76,6.41-53.8,17.87a92.35,92.35,0,0,0-14.92,13.55l29.06-14.27.47,1.05-24.83,21.33,1.47,1.92c12.41-9.52,25.84-17,40.85-21.55l-34.89,27.16c.34.45.68.9,1,1.36,10.63-6.59,21.08-13.49,31.95-19.64,7.22-4.09,15.41-6.31,20.71-13.65,1.37-1.9,5.46-2,8.36-2.6,8.59-1.84,16.94-3.53,26.12-2.23,7.26,1,15.1-1.3,22.57-2.73,11.61-2.22,23.11-5,34.69-7.42a32.7,32.7,0,0,1,10.74-.53c-21,10.63-43.89,17.48-61.86,34.12.8.2,1.36.55,1.68.4,20.24-9.79,40.11-20.44,60.8-29.17,16.36-6.9,32.31-14.84,49.82-19.3,15.25-3.9,29.77-10.64,44.59-16.22,11.82-4.45,23.55-9.17,35.42-13.51,6.06-2.22,11.94-1.48,18.12.95,13.82,5.42,27.83,10.4,42,14.83,7.57,2.37,12,6.49,15,13.93,8.31,20.08,5.54,38.83-4.85,57.1a33.25,33.25,0,0,1-3.36,4.2c-1.08,1.33-2.15,2.66-3.36,4.17,4,1.49,15.29-1.23,16.8-4,.62-1.14.31-3.06-.14-4.44-2.56-7.79.49-12.43,8.72-12.85,2.77-.14,5.55,0,8.22,0,1.66-10.9,3.84-11.94,19-9.59-.24-11.32.47-12.15,12.47-12.26,5.2,0,10.41.52,16.82.88,0-4.85-.22-9.76.05-14.64.54-10,1.53-20,1.89-30.08a9.38,9.38,0,0,0-2.78-6.47c-6.35-5.76-6-15,1.9-18.15,7.7-3.08,16.19-4.21,24.35-6.1a51.51,51.51,0,0,1,5.93-.63c.27-5,.8-9.78.68-14.55-.1-4.27,1.57-7.37,5.48-8.24A97.48,97.48,0,0,1,890.64,528c16.64-.37,33.3-.13,49.87-.13.92-13.4-4.5-19.55-16.31-19.87-10.46-.28-20.91-.55-31.35-1.13-2.92-.17-6.2-.73-8.58-2.26-10.26-6.58-17.51-15.93-22.1-27.08-1.89-4.61-1.59-9.93,4-12.43,5.16-2.3,8.91-.36,12.1,4.47,17.07,25.84,16.34,20.16,39,20.4q11.76.14,23.52-.11a6.15,6.15,0,0,0,4-1.68c9.62-10.53,11.79-10.58,21.84-.13a6.85,6.85,0,0,0,1.31.74c1.09-1,2.29-2,3.43-3.1,6.52-6.26,6.25-7.74-.63-13.48-2.17-1.81-4.78-5.44-4.28-7.54.65-2.72,3.84-5.73,6.63-6.8,3.15-1.19,7.21-1,10.61-.26,6.08,1.35,7.91,6.61,4.74,12-.81,1.39-1.74,2.7-2.61,4.06-2.33,3.67-2,6.38,2.68,7.6a11.53,11.53,0,0,1,1.68.67c10,4.27,10,4.27,12-6.15,1.9-10.23,5.78-13,16.09-10.06,5.83,1.67,9.81.61,14.65-3,9.62-7.21,20-13.37,30.14-19.92,15.58-10.08,32.26-11.72,50.25-7.86,28.38,6.09,56.82,12.05,85.47,16.61,13.94,2.22,28.4,1.23,42.62,1.51,4,.08,7.92-.49,13.85-.9-2.36,3.65-3.53,6.06-5.24,8-16,18.12-36.45,29.36-58.42,38.33-8.92,3.65-17.87,7.2-26.76,10.92a72.37,72.37,0,0,0-6.58,3.58v1.78c4.44,1.37,8.84,2.87,13.33,4.06,7.17,1.9,14.47,3.38,21.6,5.44,8.5,2.45,9,3.61,7.63,12.41a26.11,26.11,0,0,0,0,3.48c2.33.67,4.82,1.25,7.22,2.1,7.31,2.6,9.71,7.36,6,14.07-2.65,4.82-1,7.09,3.08,8.71,29.79,11.72,27.46,58.15,1.58,72.94-15.19,8.67-30.13,6.63-44.7-1.32-3.68-2-6.7-2.08-10.71-1.33a202.77,202.77,0,0,1-26.7,3.14c-5,.24-6.89,2.11-6.9,6.71,0,22.34,0,44.67-.15,67,0,3.42,1.76,4.27,4.72,4.9,15.5,3.29,29.47,10.23,43.18,18,22,12.49,19.64,41.07,6.44,53.92a106.77,106.77,0,0,1-30.58,21.13c-28.21,12.76-57.94,20.26-88.57,23.93-25.07,3-50.25,5.14-75.39,7.55-5,.48-10,.45-15,.69-5.83.27-7,2.21-6.47,7.89.51,5.46-.23,11,.17,16.51.68,9.4-2.35,17.42-6.13,26A26.09,26.09,0,0,0,963.45,917a57,57,0,0,1,4.65,10.45c5.24,14.47,3.34,21.85-8.06,32.22-.71.64-1.3,1.41-2.23,2.42,1.46,1.69,2.67,3.24,4,4.64,4.38,4.43,6.37,9.49,5.26,15.87-1.06,6.15-.42,12.44,4.31,16.89,15,14.08,18.84,33.2,24.05,51.69,11.58,41.1,27.71,79.75,58.63,110.55,14.49,14.44,30.26,27,49.66,34.49,9.8,3.77,17.08,9.75,16.75,21.67-.36,12.47-9.4,19.61-24.32,18.78a33.93,33.93,0,0,1-20.75-8.4c-6.7-5.63-14.3-10.27-21.83-14.8-30.48-18.3-55.84-41.93-75.41-71.66-4.52-6.88-8.76-14-13.45-20.71-1.35-1.95-3.85-3.1-5.82-4.62-1.17,2.2-3.14,4.32-3.34,6.59a82.54,82.54,0,0,0,.1,15.56c.95,9.43-1.81,14.2-12.59,16.38-7.26,1.47-15.15,1-22.6.07-7.64-.94-8.93-3.37-8.68-11,.15-4.62.4-9.24.65-13.86s-1.64-7.7-6.65-10.14c-1.59,2.69-3.14,5.34-4.73,8-10,16.69-19.18,34-30.3,49.89-11.64,16.65-25.76,31.34-43.39,42.16a17.6,17.6,0,0,0-5.44,5.49c-8.58,13.63-30,19.3-44.09,11.52-10.65-5.88-11-22.68-.41-30.78a143.86,143.86,0,0,1,15.78-10c15.75-9,27.08-22.55,37.58-36.9,1.15-1.58,1.88-3.47,3.64-6.77-4.49,1.35-7.55,2.38-10.66,3.18-6.95,1.78-13.84,4-20.91,5-6.74,1-12.51-2.49-17.46-6.85-5.31-4.68-5.45-12.15-.51-19.17,3.83-5.46,9.37-8.75,15.85-8.62,20.31.42,36.75-8.59,50.75-21.74,5.46-5.14,8.76-13.41,11.1-20.86,4.8-15.29,8.15-31,12.38-46.5,2.86-10.46,5.68-21,9.59-31.07,1.59-4.1,5.6-7.71,9.33-10.4,3.2-2.3,4.16-4.52,3.38-8,0-.2-.06-.4-.11-.59-2.39-9.28-2-17.72,8.13-23.4-2.58-2.31-4.61-4.07-6.58-5.9-9-8.39-11.06-16.87-6-28.14,2.15-4.83,5.33-9.19,8.06-13.77.1-.16.3-.27.42-.43,2.84-4,1.57-26.66-2.09-30-5.63-5.18-7-11.12-5.64-18.54A127.12,127.12,0,0,0,895.23,846c0-1.29-2.93-3.65-4.67-3.8-10.79-1-21.64-1.39-32.46-2.12-44.84-3-89-10-131.05-26.38-16.7-6.51-32.55-15.64-47.9-25-14-8.57-18.85-22.69-16.5-38.7.61-4.19,3.47-8.51,6.39-11.81,8.85-10,21-15.29,32.68-21.11.89-.45,1.75-.94,4.1-2.2a29.33,29.33,0,0,0-3.92-2.29c-7.91-3-10.28-8.81-9.17-16.75a43.74,43.74,0,0,0-.12-7.23c-.28-10.15-.29-10.18,9.77-13.14q4.92-1.46,9.92-2.56c3.28-.72,6.61-1.23,10.05-1.86-.32-1-.32-1.82-.7-2.12-6.16-4.86-7.34-10.28-2.93-17.16.63-1-1.72-5.56-3.42-6.08-12.43-3.79-24.31-7.06-37.33.92-18.3,11.21-39.18,15.69-60.42,19-9.45,1.48-18.3,6.85-27.37,10.58-4.9,2-9.68,4.32-14.52,6.49l-1-1.48,8.61-10.91-.93-1.18-35,22.1-1.15-1.39,4.5-8.53-39,22.68-1.52-1.93,8.52-10.57c-19.16,8.6-36.13,21.31-57.95,27.7L474,705c-16.48,6.14-31.8,14.82-49.87,16.77l9.24-10.88c-14.85,4.58-28.53,11.47-43.51,14.28l-.93-1.61,12.07-10c-.24-.4-.48-.8-.73-1.2-7.73,1.39-15.53,2.46-23.16,4.28-4.42,1.06-6.26-.47-7.53-4.34-1.39-4.26-3.13-8.4-4.72-12.6l-1.53.26q-.92,5.76-1.82,11.53Zm765-101.7c-.37-5.8-.82-11.6-1.09-17.41-.4-9-1.61-18.3,8.72-24.09l-1.43-1.9-13.53,1.47c.2,1.1.4,2.21.56,3.11h5.76c-6.11,9.06-3.56,18.7-3.16,27.93.15,3.64,2.77,7.19,4.27,10.77,2.61,5,4.59,10.57,8.14,14.79,1.34,1.58,6.37.28,9.64-.18.89-.12,1.54-2,2.3-3.06-2.22-1.07-4.33-2.56-6.67-3.15-5.32-1.34-7-4.86-6.66-9.81.39-5.59,1.2-11.16,1.32-16.75.27-11.58.13-11.58,11.57-15.16.27-.08.42-.58,1.53-2.24-2.58-1.11-5.09-3.24-7.19-2.89-6,1-10.15,6.94-10.09,13.09.07,7-.13,14.06.35,21C1129.18,609.15,1127.5,609.83,1124.59,609.85Zm-647,270.29c.48,2.54,1.06,5.07,1.44,7.63,1.08,7.31,3.23,14.09,9.48,18.71,1.15.85,2.88.91,5.18,1.58-9.45-15.39-8-29.48-1-44.07-2.35.75-4.6,1.61-5.9,3.23-3.34,4.19-6.26,8.71-9.35,13.09q1.55-8,3.1-16l-1.5-1.23L466.3,876.22l4.55-13.51c-8,1.41-14.06,8-14.39,15.17-.81,17,2.73,27.51,10.2,29.42-.7-4.62-1.76-9.12-2-13.65-.17-4.2.6-8.42,1-12.64l2,.12c1.24,10,0,21,11.19,28.78C477.13,899,473.45,889.67,477.57,880.14Zm705.17-305.58-6.58-6.09,14.34.65c-4.55-5.88-7.38-7-11.51-4.6-9.51,5.47-21,15.7-20.37,31.18h9.79l-4.44-8.93,7.87-2.24-3.72-6.12,14.83-4.06c-9.24,7.69-14.38,17.14-13.64,29.57.87,14.56,11.36,27.28,25.8,29.06,11,1.36,26.38-4.75,31.52-20.14,4.57-13.7,1.58-26.94-8.87-36.27-10.09-9-19.58-9.58-34.42-2.12A2.21,2.21,0,0,1,1182.74,574.56Zm-69.15,34.54c-15.2-5.4-31-7.78-46.81-5.26-21.73,3.47-43.49,5.21-65.38,4.17-8.06-.38-17-1.19-23.81-5-14.85-8.35-29.65-4.48-44.64-3-1.75.18-3.36,1.65-6.5,3.28,10.65,4.74,18.26,12,29.83,11.17,11-.79,22.07.1,33.11.26,10.59.16,21.2.78,31.77.39,21.05-.78,42.09-2,63.12-3.26,9.79-.61,19.53-1.85,29.29-2.8V585.69l-41.25-11c-.23.63-.46,1.25-.7,1.88a41.52,41.52,0,0,0,5.37,3c8.23,3.08,16.39,6.46,24.83,8.85,5.55,1.57,7.65,4.7,8.44,10C1110.81,602.07,1112.45,605.55,1113.59,609.1ZM860.37,580.49c-1.58-6.2-14.17-13.75-22.78-13.67.32,5.37,14.46,13.71,22.91,13.52q.54,11.43,1.07,22.85c.56,12.38,2.74,24.27,9.42,35,6.53,10.55,17.08,14,27.88,7.95,11.75-6.64,20.94-15.73,23-30.32,7.32,3.67,14.37,7.46,21.68,10.65,1.74.76,4.38-.54,6.6-.89a52.38,52.38,0,0,0-3.05-6.36c-.57-.88-2-1.18-3.1-1.75l-20.08-10.7c-1,1.94-1.94,4.84-3.77,7-7.54,8.8-14.88,17.87-23.25,25.83-5.83,5.55-10,4.6-15.37-1.48a48.26,48.26,0,0,1-6.4-9.44c-8.53-16.08-8.17-33.64-8-51.11,0-1.06,2.51-2.77,4-3,9.08-1.56,18.21-2.8,27.32-4.13,3.74-.54,7.47-1.42,11.22-1.52,14.46-.36,28.92-.38,43.38-.8,1.33,0,2.61-2,3.91-3.12l-1.18-1.29-11.85,1v-.53l13.1-2.61-.24-2.44c-28.15,6.34-55.76,4.52-83.09-4.12,7,8.57,18.13,7.79,27.54,11.93-10.54,2.8-20.57,3-29.57-2.44-8.75-5.23-17.12-3-27.5-1.07l20.95,13Zm-187,173.83c-.21,2.12-1.41,4.94-.48,6.23,3.56,5,7.1,10.4,11.93,13.85C700.28,785.47,718,792.25,736,797.9c48.24,15.1,98,21.55,148.18,23.73,33.91,1.48,68,2,101.88-.13,34.38-2.13,68.69-7,102.71-12.62,20.22-3.35,40.1-9.68,59.57-16.31,9.64-3.29,18.22-10,26.86-15.75,3.72-2.47,7.18-6.08,6.8-12.78-3.91,3.21-6.8,6-10.07,8.19-7.59,5.16-14.73,12.13-23.17,14.67-23.38,7.06-47.07,13.77-71.1,17.75a814.36,814.36,0,0,1-86.79,9.28c-28.37,1.62-56.89.71-85.35.73-1.51,0-3-1.59-4.54-2.45.24-.55.48-1.1.73-1.65,3.33,0,6.66-.1,10,0,6.36.23,12.72.7,19.08.85,4.8.11,9.91-2.91,14.23,1.62.22.23,1,0,1.46-.1,3.52-.76,7-2,10.54-2.23,6-.38,12,.36,17.9-.2,30.89-2.92,61.81-5.61,92.6-9.34a346.43,346.43,0,0,0,89-22.7c4.25-1.73,7.82-5.14,11.71-7.78l-1.15-2.82c-11.71,1.29-23.45,2.32-35.12,3.93-15.3,2.11-30.51,4.88-45.83,6.83-2.62.34-6.31-1.28-8.23-3.24a13.42,13.42,0,0,0-11.78-4.36c-15.8,1.44-31.61,2.84-47.44,3.86-37.12,2.37-74.25,4.48-111.38,6.74-6.88.42-14.21-1-19.86,4.89-.75.77-2.7.43-4.1.53-16.24,1.15-32.49,2-48.7,3.5-13.51,1.21-25.94,1.7-38-7.76-24.34-19.09-49.89-36.65-74.92-54.86-4.28-3.12-8.94-7.1-14.21-4.47a303.21,303.21,0,0,0-29.49,17c-4.65,3-6,8.3-4.86,13.93ZM294.09,873.55c-4.31,1.79-7.52,2.87-10.49,4.39-19.28,9.85-36.44,22.67-52.08,37.59-13.91,13.26-24.58,28.42-29.92,47.19-5.12,18-4.85,36.12-2.54,54.32.88,7,3.19,13.76,4.85,20.63l1.76-.32.92-7c.9,1.87,1.56,2.71,1.7,3.63,3.42,22.17,17.13,37.1,34.77,49.14,14.65,10,31,14,48.6,12.65,7.61-.57,10.48-4.14,10.36-11q-.36-22-.29-43.91c.06-24.44.88-48.9.23-73.33-.56-21-2.57-42-4.25-63C296.92,894.63,295.42,884.75,294.09,873.55Zm937.64-407.93c-12.73-1.4-23.75-1.9-34.47-3.93-28.12-5.33-56.15-11.15-84.14-17.13-16.11-3.45-31-2.12-45.65,6.36-22.57,13.05-43.51,28-62.27,46.14-8.45,8.18-14.71,17.35-18.36,28.52-1.24,3.79-1.23,5.84,3.11,7.17,6.12,1.89,12,4.46,18.06,6.67,19.58,7.2,39.25,14.15,58.72,21.64,10.77,4.14,21.21,9.17,32.07,13.92,2.37-6,3.84-11.28,6.41-16,14.67-26.83,35.22-47.72,63-60.95,13.6-6.47,27.42-12.49,40.9-19.19C1216.56,475.18,1223.46,470.51,1231.73,465.62ZM680.15,863.51l1.31-.74a27.82,27.82,0,0,0-.75-4.59c-4.5-13.25-10.25-25.74-20.72-35.56-2.42-2.27-5.69-5.14-5.94-8-.84-9.55-7.72-13.13-14.74-16.42-14-6.54-28.18-12.65-42.34-18.81-7.65-3.32-15.18-7.18-23.16-9.35-9-2.47-18.53-3.35-27.83-4.87-18.78-3.08-37.69-5.48-56.31-9.33-30.13-6.21-54.25,2.65-73,26.77-2,2.55-3.26,5.61-4.87,8.44,5.06-3.51,8.59-8.12,13-11.74s9.73-6.47,14.65-9.65l.22.64-13.29,16.83,2.05,1.87c6.92-11.46,15.41-20.91,28.91-24.06a99.9,99.9,0,0,1-9.05,8.42c-7.11,6.13-7.11,6.13-7,10.05,10-7.07,19.53-14.68,31.94-16.64-8.44,6-17,11.68-20.47,22.32,10.21-8.83,20.33-17.54,35.25-18.7-8.43,4.86-16.26,9.55-20.34,18.27,9.26-6.29,18.14-13,29.18-15.9-5.33,5.68-12.48,9.55-15.52,17l27.92-15.73c.2.37.39.75.59,1.13l-13.63,13.65,1.29,1.22c8.64-5.53,15.89-13.92,27.19-14-6.74,6-13.34,12-20,17.9.44.57.89,1.13,1.33,1.69,9.58-8.29,19.8-15.29,33.33-17.62l-13.87,10.84,1,1.56c10.91-6.1,22.2-10.77,35-9.84-5.34,2.66-11.13,4.38-16.26,7.28-5,2.82-9.25,6.85-13.83,10.34l1,1.3c4.08-2.5,8-5.21,12.28-7.42,3.32-1.74,6.86-3.52,10.49-4.07,5.67-.85,11.5-.77,17.26-.92,2.42-.06,4.86.28,8.82.54-7.1,4.09-12.82,7-18.13,10.52-11.65,7.74-12.59,8.87-13.54,13.41,12.61-8.93,25-17.62,42-18.24l-24.06,15c.3.58.59,1.16.88,1.74C580.75,806.06,591,795,605,797.62l-32.52,19.3,1.12,2c4.43-2.16,8.84-4.39,13.31-6.48s8.63-4.45,13.21-5.78,9.3-1.47,14-2.13l.36,2C602,809.78,592.23,817.24,583,825.44c7.8-3.28,15.22-7.15,22.77-10.75s15.07-6.51,24.88-4.82c-28.53,13-30.64,14.35-33.18,21.34,5.7-3.28,10.41-6.17,15.28-8.75s9.66-4.9,15.7-3.51c-9.52,4.82-14.55,12.91-18.14,22.14L627,826.43l1.72,1.52Q623,838,617.29,848.13l1.55.94,9.6-13.18,2,1-5.52,28.48,1.24.29,9.41-24.16,2.55.52-3.84,36.17,1.3.36q4.23-15.09,8.44-30.18l.82,0v41l2,.26q2-15.73,4-31.46a58,58,0,0,1,3,14.3c1.58,16.32,2.1,32.8,4.72,49,3,18.6,1.21,36.88-.75,55.24-1.43,13.32-4.74,26.55-5.09,39.87-.57,21.16,10.23,35.77,30.86,44.43l-8.45-9.16c3.84.56,6,.38,7.67,1.21,9.28,4.65,18.56,9.33,27.58,14.45,4.86,2.76,9.16,6.49,13.8,9.66,2.61,1.78,5.49,3.36,7.38-.9,1.59-3.57.93-6.39-2.61-8.75-4.93-3.28-9.44-7.19-14.33-10.55-3.75-2.58-7.8-4.72-11.71-7.08-1.26-.75-2.48-1.58-3.71-2.37.22-.62.44-1.24.65-1.87,4.66.41,9.43.33,14,1.32,9.34,2.05,18.47,5.14,27.85,6.94,12.82,2.47,18.7,9.31,18.76,22.64,0,3.22.63,7,6.3,7.58.56-5,1.87-10,1.47-14.76-.81-9.72-2.61-18.77-14.58-21.91-7.12-1.87-13.6-6.17-20.37-9.38l.49-2.4c1.7,0,3.6-.49,5.08.09,6.16,2.4,12.06,5.55,18.31,7.64,8.72,2.93,14.56,8,15.81,17.49.22,1.65,1.16,3.21,1.77,4.81a80.12,80.12,0,0,0-2.16-19.67,8.76,8.76,0,0,0-4.37-5.19c-6.72-3.14-13.75-5.6-20.55-8.57-2.21-1-4.08-2.72-6.11-4.12l1.47-2.39,15.49,8C746.07,1018,728.78,1018,712.21,1014l8,7.43-1.14,1.9-19.77-8.65-.75,1.12,15,12c-.25.48-.49,1-.74,1.46L687.07,1017l11.64,14.86-1.13,1.81-19.4-7.4c1,2.37,2.2,5.12,3.37,7.86l-1.2,1c-2.35-2-4.77-3.85-7.05-5.89s-4-5.16-6.59-6c-5.21-1.66-5.69-5.35-5.26-9.44.65-6.17,1.71-12.31,2.84-18.41,4-21.66,6.2-43.42,2.78-65.34-1.22-7.83-4.24-15.39-5.22-23.23-1.5-11.91-1.71-24-2.93-35.94-.6-5.82-2.25-11.54-3.42-17.3a18.17,18.17,0,0,1,4.46,9c2.69,18.23,5.45,36.46,7.43,54.77.88,8,3.2,14.58,10.92,20,.9-3.25,2.27-5.81,2.16-8.32-.31-7.21-1.12-14.42-1.93-21.61-1.12-10-2.48-19.94-3.54-29.93-.12-1.13,1-2.39,2-4.7l-8-17,1.21-.6Q675.17,859.35,680.15,863.51Zm2.54-531.94,1.5,2.15c3-1.44,7.16-2.09,8.69-4.46,6.78-10.47.82-26.42-10.76-31.37-9.72-4.15-18.51-1.22-26.21,4-7.35,5-13.86,3.31-20.31-.13a56.19,56.19,0,0,0-37.38-6c-15.28,2.79-29,9-36.43,23.84-8.75,17.51-8.86,43.83,21.9,52.09,1.5.4,3,.91,5,1.52l-8.79,4,.63,2h14l-18,9.33c.38.75.75,1.51,1.12,2.26l30.19-12.47c-10.14,9.36-25,13.15-31.07,28.46L589,398l1,1.2c-4.09,6.34-10.86,11.31-11,19.88,3.38,1.32,6.32,2.52,9.31,3.62,14.67,5.42,29.33,12.1,45.33,10.32,12.8-1.42,25.4-4.79,37.95-7.85,2.11-.52,4.66-3.69,5-6a83.43,83.43,0,0,0,.65-16.13c-.3-9.95-6.47-17.49-11.16-25.59-4.53-7.83-9.93-14.67-19.87-15.84-1.14-.14-2.17-1.13-3.25-1.72l.3-1.59,16.61.82a21.42,21.42,0,0,0-7-4.2c-13.3-4.94-23.47,1.48-33.76,8.8-5.43,3.86-11.79,6.53-18,9.17-2.18.93-5.1.15-7.67.15a55.8,55.8,0,0,1,13.69-6.67c14.86-4.81,25.29-20.79,43.46-16.13-2.79-9.19-10.81-4.61-15.87-7.73,4.89.19,10,1.59,13.13-3.15-.14-.68-.29-1.37-.43-2.05l-11.86,1.17.11.31h-6.8l3.64,5.22c-2.24,2.91-5,3.91-8.15-.24-2.14-2.83-4.38-3.13-5.62.62-2.35,7.11-7.89,8.35-14.28,8.35s-10.62-3-12.57-9.19a27.28,27.28,0,0,0-1.87-3.76l-8.6,5.32c-.06-9.32,6.56-13.51,11.6-18.66l-.84-1.26-13.63,8.23c6-8.09,12.8-14.71,24.23-11.7-.43-1.58-.76-2.77-1.39-5.07l14.16,5.07c.61-1.72,1.08-3.06,1.34-3.81,6.62,2.79,13.15,4.7,18.76,8.12,6.74,4.11,11.61,2.22,16.64-2.47,1.23-1.15,3-1.71,4.53-2.54,2.65,4.89,4.31,0,6.23-.76,3.41-1.35,6.66-3.12,10-4.72l.73,1.57c-.52,1.56-1,3.12-1.82,5.51a74.44,74.44,0,0,1,7.64-1.66c2.54-.25,5.12-.06,8.54-.06-.9,2.29-1.46,4.13-2.33,5.82S683.75,330,682.69,331.57ZM504.93,612.33c12.86.39,15.19-1.58,17.63-13.44,1.21-5.89,2.84-11.7,4.28-17.55l1.15.27L523.5,607.5l2.39.84c1.26-2.19,3-4.23,3.7-6.58,2.34-7.67,4.23-15.47,6.51-23.15.56-1.86,1.93-3.48,2.93-5.2l1.14.67q-1.12,11.26-2.23,22.52l2.25.46c3-8.64,5.91-17.31,9-25.92.87-2.44,1.82-6.43,3.35-6.75,4.66-1,4.38-4.59,5-7.42,2.27-10.84,5.11-21.69,5.91-32.67,1-13.74.19-27.61.11-41.43,0-.42-.53-.84-1.61-2.42-1.26,5.27-2.18,9.47-3.3,13.63s-2.41,8.06-3.62,12.1l-2.45-.66,1.5-28.8-2.25-.24-8.52,30.62-2.35-.29q1-14.65,2.06-29.32l-2.11-.46q-4.11,8.76-8.21,17.53L530,493.43q3.87-14.18,7.73-28.35l-1.24-.72L522.22,488c-2.06-11.81,5.12-20.78,8.75-30.74l-1.61-.92c-5.81,7.93-11.61,15.86-18,24.56-2.76-13.3,7.18-21.45,10.66-31.79-9.3,5.76-14.52,14.72-19.84,23.57a2.75,2.75,0,0,0-.13,1.78c1.14,6.16-2.64,9.95-6.21,14.18-4,4.8-8.57,9.8-10.63,15.52-3.95,11-6.31,22.58-9.56,34.79l7.16-2.71-9.48,34.6,1.77.57,12.71-20.17.53.34Q481.17,574,474,596.48l1.91.95L489,576.14c.46,11-6.15,20.71-5,31.57l1.55.52q5.44-12.09,10.9-24.17c2.45,9.77-4.54,18.46-1.54,27.73l2,.52,7-13.66C504.24,603.62,504.57,607.79,504.93,612.33Zm-38.47,398.79c0,11.16.24,21.78-.08,32.38-.23,7.19-1.27,14.36-1.9,21.54-.31,3.5.73,5.5,4.86,5.88,5.17.47,10.25,1.88,15.38,2.89l42.77,8.44c-1.4-18.44-1.91-36.73-4.42-54.75-2.44-17.57-2.37-35.17-3.46-52.75-1.12-18.17-2.17-36.35-3.34-56.12-13.13,0-25.53.15-37.93-.08-4.24-.08-5.7,1.52-5.78,5.56-.14,7.74-.55,15.48-.9,23.21-.12,2.5-.39,5-.58,7.4l41,4.12-2.52,14-39.1-2.7c-.43,6.91-1.09,12.86-.94,18.79,0,1.2,3,3.13,4.84,3.35,11.16,1.38,22.38,2.25,33.56,3.54,2.77.32,5.44,1.53,8.16,2.33-.05.62-.09,1.25-.14,1.88-1.57.36-3.21,1.2-4.71,1-11.71-1.54-23.37-3.45-35.09-4.86-4.53-.55-9.19-.09-13.79-.09a15.06,15.06,0,0,0,8,4.36c11.88,1.83,23.81,3.25,35.7,5,2.69.4,5.84,1,7.72,2.65,1.62,1.44,1.73,4.58,2.51,7-1.92.56-3.84,1.58-5.76,1.58-3,0-6-.71-8.95-1.09ZM213.05,422.31l2.11-.83c-2.58-6.58-5.11-13.18-7.81-19.71a3.13,3.13,0,0,0-2.33-1.44c-4.71-.19-12.88,8-12.17,12.78a173.64,173.64,0,0,0,4.22,19.34c20,75,40.21,150,60.12,225.08,19.28,72.68,37.19,145.61,47.13,220.35a836,836,0,0,1,7.82,113.47c-.16,44.21-1.36,88.42-2.19,132.63-.28,15.07-.78,30.14-1.16,45.21-.09,3.62-.5,7.29,0,10.83.19,1.37,2.49,2.44,3.83,3.65.94-1.23,2.51-2.37,2.7-3.71a120.19,120.19,0,0,0,1.09-13.14c1.07-28,2.45-56.08,3-84.14.65-33.13,1.16-66.29.59-99.42-.46-26.21-2.24-52.42-4.19-78.57-1.42-19-2.82-38.09-6.44-56.71-8.16-41.92-16.58-83.85-26.92-125.28-16-64.06-33.76-127.69-50.61-191.54-9.74-36.88-19.21-73.82-28.67-110.77-1.13-4.44-2.93-9.18,1.55-15.14ZM436,1005.89c-12.06-1.78-24.2-2.55-35.75-5.6-9.88-2.6-17.64.15-25.53,4.9-2.24,1.35-4.3,3-6.57,4.27-4.53,2.57-9,5.52-13.82,7.24-2.17.78-5.27-1-7.94-1.68,1-2.48,1.43-5.7,3.26-7.26,3.14-2.7,7.19-4.32,10.81-6.49,2.82-1.68,5.55-3.5,8.42-5.32-3.78-5.47-8-7.27-13.48-5-4.63,1.93-9.45,3.55-13.75,6-1.94,1.13-3.93,4-4,6.16-.38,9.6-.07,19.22,0,28.84,0,4.73,0,9.47,0,14.63,22.4,3.51,43.73,7,65.13,10,4.31.6,8.89-.8,12.8-1.21.9,2.23,1.24,5.26,2.45,5.66,5.54,1.85,11.33,3,18,4.59Zm169.81,37.95-1.54-.64c-2.18,6.48-5.92,12.9-6.18,19.45-.42,10.75,5.31,19.6,13.68,26.32,8.91,7.16,17.93,14.19,27.15,20.94a225.29,225.29,0,0,0,22,14.66c11.57,6.52,20.5,14.94,24.35,28,.66,2.25,1.52,5.07,3.24,6.22,2.13,1.43,5.25,1.42,7.94,2,.46-2.27,1.74-4.74,1.24-6.77-2.53-10.3-7-19.56-15.33-26.65-2.36-2-4.22-4.63-6.3-7,.36-.71.73-1.42,1.1-2.12,2.52,1,5.53,1.52,7.48,3.22,9.91,8.69,18.59,18.34,22,31.64.17.68.9,1.21,2.32,3,.9-3.13,2-5.22,2-7.32.09-7.83-2-14.87-7.33-21-5.71-6.57-10.74-13.73-16.07-20.63l2.22-1.92c7.89,3.72,11.25,12.17,16.43,18.46,5.6,6.79,9.6,14.91,14.09,22.12,4-9.66-1.16-17.85-6.42-25.7-5.91-8.83-12.49-17.2-18.78-25.77l1.61-1.29c14,11.27,23.48,26.36,32.74,42.08,3.47-5,1.71-9.37-.65-12.91-10.95-16.33-21.39-33.18-38.45-44.22-9.2-5.95-18.43-11.84-27.65-17.76l-.72.49,13.77,17.86c-13.47-5-22.21-15-28.57-27.62l-2.09,1.61,20.21,33.85c-12.13-6.8-19.63-17-26.23-28.2,1.31,13.51,12.12,22.28,17.12,33.88l-2.43,2.06-16.55-19.69-1.35,1.11q1.93,7.35,3.88,14.71l-2.25,1c-2.68-5.35-5.73-10.56-8-16.09s-3.77-11.62-5.61-17.45l-1.33.33q1.2,14,2.42,27.93l-1.53.29C618.76,1071.66,604.8,1061,605.76,1043.84ZM337.33,973.53c2.55-.75,4.1-1.08,5.56-1.64,31.43-12.09,61.5-27.71,94.32-36.2,1.34-.35,3.2-2.26,3.24-3.49.18-5.36.94-11.21-1-15.89-.84-2.08-7.49-1.8-11.5-2.59-.39-.07-.8,0-1.2-.12q-35.79-7-71.57-14c-6.73-1.33-13.42-2.86-21-4.48C335.29,921.77,336.3,947.34,337.33,973.53ZM513.63,308c-2.49-4.34-5.21-9.24-8.08-14.07-9.71-16.38-39.34-27.45-57-4.32a40.2,40.2,0,0,0-7.85,31.8c4.43,25.15,19,43.74,41.33,55.86a24.78,24.78,0,0,0,23.71.38c3.62-1.84,7.22-4.07,6.89-9.58l-10.68,2.1,14.88-22.86-1-.94-10.08,5.39-1.61-1.41,13.39-19.22L504.38,337l-1.29-1.65,16.65-19.67-10.1,3-1.59-1.34ZM697.79,610.74l1.5-1.58c11.87,3.54,23.77,7,35.58,10.7a9.11,9.11,0,0,1,4.61,3.67c6.38,10.43,13.66,20.65,10,34.08-.38,1.38-.05,3-.05,4.44.68,0,1,.08,1.06,0a7.79,7.79,0,0,0,1.08-1.43c6.42-11.73,7-23.1.55-35.49-4.18-8-8.45-14-17.8-15.87-8.61-1.76-17-4.56-25.43-7.19-1.93-.6-3.51-2.35-5.25-3.58l1-1.5a6.56,6.56,0,0,1,1.6,0c14,3.5,28,6.9,41.93,10.69,1.87.51,3.72,2.74,4.68,4.63,2.74,5.38,5,11,7.47,16.52l1.43-.55c-1.76-5.7-4.1-11.3-5.13-17.12-1.33-7.52-6.39-9.5-12.67-11.61-14-4.71-27.78-10.27-41.67-15.42-1.82-.67-4.27-1.86-5.62-1.19-6.72,3.36-13.17,7.27-19.71,11l.58,1.1,10-.51c.18.78.35,1.56.53,2.33l-30.3,10.8.22.51,25-2.88.63,2.35-24.27,10.87c3.92.8,7.69.45,11.35.93,2.15.28,4.14,1.87,6.2,2.88-1.55,1.58-2.82,3.83-4.7,4.63-6,2.58-12.33,4.62-18.94,7l8.41,4.93-31.51,12a11.24,11.24,0,0,0,7.6,1.8c18.82-3.35,35.19-12.74,51.94-21.23a6,6,0,0,1,3.74-.36c8.8,1.94,17.62,3.84,26.31,6.2,1.72.47,3.59,2.62,4.22,4.41,2.25,6.48,6.61,12.5,4,20.21-.52,1.53,2.17,4.51,3.89,6.36,2.4,2.6,5.15,2.32,6.92-.83,3.7-6.57,6.59-13.34,3.36-21.08-2.08-5-3.45-10.39-6.22-15a19.16,19.16,0,0,0-8.62-7.18c-8.52-3.5-17.43-6-26.07-9.24C699.74,614.41,698.91,612.19,697.79,610.74Zm90.3,613.53c3.16-2.1,6.43-4,9.36-6.28,3.9-3.08,7.12-7.26,11.38-9.62,14.69-8.14,26.61-19.31,37-32.28,26.71-33.44,40.53-72.67,50.87-113.45,3.49-13.76,5.64-28,14.76-39.69,3.82-4.92,2.23-9.59-3.58-12.76-7.26-4-11.44-3.45-13.65,2.79-4.06,11.5-8,23.12-10.8,35-9.34,39.82-21,78.59-43.11,113.64-13.21,20.93-29.72,37.56-52.55,47.6a13.43,13.43,0,0,0-5.46,4.42c-1.4,2.06-3.15,5.43-2.35,7C780.84,1222.38,784.43,1222.77,788.09,1224.27ZM700.48,683.2l-1.9,2c1.81,2.58,3.18,5.72,5.54,7.62,4.68,3.77,9.89,6.88,14.9,10.21q44.87,29.81,89.68,59.67a6.41,6.41,0,0,1,2.23,4.15c.51,4,.23,8.08,1,12,.32,1.64,2.47,2.92,3.79,4.37.78-1.44,2-2.82,2.23-4.32a47.79,47.79,0,0,0,.2-9.64c-.32-4,1.45-5,5.22-5.24,9-.46,18-1.44,27-2.17,33-2.65,59-18.59,79.81-43.25,6.2-7.35,12.52-16.4,14.09-25.48,2.88-16.71,2.32-34,3-51.09a4.5,4.5,0,0,0-2.26-3.48,94.23,94.23,0,0,0-9.83-2.47c1,3.65,2.35,6.79,2.47,10,.33,8.83,0,17.68.16,26.51a51.41,51.41,0,0,1-7.14,27.06c-16.58,28.32-40.81,46.89-73,53.51-12.64,2.6-26,2.14-39,2.38a24.42,24.42,0,0,1-12-3.49c-12.34-7.12-24.63-14.41-36.47-22.33-21-14.07-41.66-28.68-62.53-43C705.53,685.21,702.91,684.35,700.48,683.2ZM411.58,488.37c10.68-7.78,16.26-20.64,28.46-26.55-1.69,3.78-4.31,6.86-6,10.38-1.59,3.3-2.22,7.06-3.5,11.36,14.27-15.41,27.8-30,41.33-44.67l-.55-1-25.51,16.38c.61-2,.62-2.85,1.08-3.35,7.08-7.71,14.21-15.36,21.33-23l-.25-.85-29.12,17.72-1.37-1.94L452.33,427l-.59-.89-22.25,12-1.27-1.83,26.94-20.64c-13.15,1.31-24.32,8.23-35.73,14.7,9.47-13.87,23.57-21.66,37.76-29.48a217.78,217.78,0,0,0-23.51,8.81c-18.61,8.5-29.39,24.79-38.48,41.78-10.39,19.43-19,39.8-28.34,59.81-.89,1.92-1,4.2-1.7,7.21,8.37-2.45,11.16-8.41,13.37-14.32,4.71-12.57,8.92-25.33,13.2-38.06,4.08-12.15,13.58-23.76,24.41-29.23-6.56,11.36-15.41,21.22-18.07,34.71l22.65-26.75,2.22,1.47c-7.89,13.53-15.67,27.1-20.31,42.18,8.17-11.12,14.5-23.46,26.08-31.77Zm681,732,1.22-1.22c1.79-.21,3.74-.06,5.36-.71a70.1,70.1,0,0,0,7.34-3.93c-2-2.76-3.67-5.82-6.07-8.15-1.25-1.2-3.79-1-5.68-1.62-2.65-.87-5.58-1.42-7.79-3-9.85-6.84-19.63-13.8-29.19-21-30.88-23.41-50.83-54.84-65.33-90.13-7.16-17.44-13.61-35.19-21.07-52.5-3.06-7.09-7.57-13.67-12.16-19.94-2.37-3.25-6.56-8.42-10.56-4.83-3.73,3.35,1.41,7.39,3.76,10.58,2.82,3.84,6.89,7,8.86,11.18,4,8.51,7.85,17.28,10.24,26.34,8.23,31.27,22.25,59.59,40.72,86,17.55,25.14,40.84,43.39,66.83,58.72,2.69,1.59,4.86,2.54,6,6.25C1086,1215.54,1090,1217.75,1092.61,1220.35ZM531.46,910.9l-3.2.45c-.37,3.68-1.27,7.4-1,11,1.83,28.23,3.7,56.47,5.9,84.67q4,51,8.54,102c3.41,37.36,7.18,74.68,11,112,.25,2.41,2.35,4.63,3.59,6.94.7-2.39,2.12-4.82,2-7.15-.79-11.81-2.12-23.59-3-35.39-1.82-24-3.32-48-5.25-72.06-1.34-16.53-3.37-33-4.77-49.53-1.62-19.19-2.82-38.41-4.34-57.6-1.29-16.38-2.83-32.74-4.15-49.12-1-11.81-1.56-23.65-2.64-35.45C533.72,918.06,532.36,914.5,531.46,910.9ZM601,454.61c1.77,3.21,2.72,7.44,4.85,8.15,2.42.82,5.9-1.52,9.14-2.56.41,2.27.81,4.52,1.52,8.51l9.48-8.78c.23,3.12.41,5.64.75,10.26l9.9-9.51c.29,3,.49,5.09.68,7.18l1.48,1.19,6.56-8.13L647.5,465c4.5-1.06,3.6-10.7,10.57-5.94,2.18-2.38,4.61-4.55,6.41-7.15,1.6-2.31,2.51-5.11,3.73-7.69a79.71,79.71,0,0,0-8.62-3.49c-1.41-.41-3.14.28-4.72.52-18.14,2.68-35.91,2-53.2-4.95-8.38-3.38-17.06-6-27.22-9.56,4.14,6.84,8.08,11.76,10.22,17.36,1.73,4.56,3.31,7.38,8.6,5.91a37.84,37.84,0,0,0,.69,4.61,31.82,31.82,0,0,0,1.67,3.93Zm168.42,26.15c1.93,4.46,3.26,9.47,6.15,13.3,1.23,1.63,2.18,2.36,2.46,4.73,1,8.43-3.26,14.48-7.73,20.78-1.64,2.31-1.84,5.64-2.7,8.51,3.2.63,6.44,1.89,9.59,1.68,2.34-.16,4.94-1.81,6.75-3.51,10.63-10,13.16-23.89,8.14-38-1.48-4.19-.74-9.17-1-13.79-.08-1.64.57-3.72-.2-4.85-3.14-4.59-8-5.26-15-1.36-11.92,6.61-23.56,13.72-35.27,20.7a8,8,0,0,0-1.93,2l26.64,5.63C764.14,490.4,764.06,484.24,769.42,480.76Zm-438,574.09c-.22,1-.43,2.08-.65,3.12,3.6,1.4,7.08,3.34,10.8,4.13q27.38,5.78,54.87,11,42.21,8,84.49,15.66c14,2.56,28,5,42.11,7.19,1.55.25,3.43-1.61,5.16-2.5-1.38-1.3-2.58-3.41-4.17-3.76-7.22-1.58-14.59-2.49-21.85-4-19-3.83-37.92-8.11-57-11.7-32.28-6.08-64.62-11.83-97-17.56C342.72,1055.51,337,1055.37,331.43,1054.85Zm28.2-212.37c-7.9-3.71-13.73,3.33-21.67,5.3l11.18-11.85c-20.42.19-29.44,12.53-23.07,29.67l4.09-7.73c4.63,7.88-.75,18.29,8.44,24.07.59-7.85-1.15-15.5,4.64-21.9,1.8,8.52-1.15,17.42,5,26,.88-8.69,1.6-15.85,2.33-23l1.82.16c2,8.42-1,18.39,7.93,26.52.06-8.47-3.09-15.7,2.23-22.43l2.31,16.59,2.59.26c3.09-10,6.18-20,9.35-30.27-6.47-2.63-7.21,6.37-12.89,7.16,2.28-3.73,4.21-6.89,6-9.78-5.73-7.18-8.38,2.35-13.23,1.85,1-2.45,1.78-4.51,3-7.53l-9.55,5.24c-.23-.34-.45-.68-.67-1Zm180.52,25.61-.36-1.41c-2,.45-4.39.36-5.91,1.47-2.69,2-4.8,4.69-7.26,7-1.37,1.27-3,2.29-4.45,3.43a28.88,28.88,0,0,1,1.59-5.48c1.4-2.75,3.22-5.28,5.12-8.32-9.34-2-10.06,7-14.62,10.53l-1.29-1,4.69-9.21c-4.25,1.41-7.21,1.89-9.59,3.34s-4,3.8-5.93,5.75l-1.07-1.09,3-9c-8.57,2.2-14.72,15.28-11.19,21.31l4.62-3.29c1.09,1.86,2.54,3.61,3.19,5.62,1.94,6,1.52,13.11,8.78,16.7a30.74,30.74,0,0,0-.81-7.71c-.49-2.66-.91-5.34-1.45-8.61,23.23,4,44.63,1.29,65.59-12.05-10.68-7-19.36,4.13-30.08.42l10.73-8.19c-10.14-1.76-13.08.54-15.11,10.49l-7.33-.4Zm467.1-283.6c22.33-.68,38-1.62,52.5-8.37a9.23,9.23,0,0,0,4.43-6.71c.1-2-2.47-4.45-4.38-6.1-1.42-1.22-3.64-1.55-5.55-2.14-22.84-7-46.07-4.55-69.26-2.82a54.37,54.37,0,0,0-10.65,1.93c-4.81,1.37-9.66,4-9.82,9.33s5.28,7.43,9.66,8.39C987.24,580.9,1000.44,583.18,1007.25,584.49Zm-568.2,367.9-60,23.81.47,2,59.53,5.46ZM728.62,677.31c-.51.88-1,1.76-1.51,2.65a32.52,32.52,0,0,0,4.25,4.29c13.61,9.54,27.14,19.21,41,28.35,7.85,5.17,16.24,9.52,24.49,14.06,7.84,4.32,15.7,4.85,24.29-.62-2.14-1.38-3.56-2.41-5.1-3.26-24-13.25-48.07-26.59-72.24-39.62C739.07,680.6,733.7,679.23,728.62,677.31ZM463.92,526.44l-2.12-.06c-2.65,16.85-5.12,33.76-10.94,51.48-1.39-4.29-2.21-6.79-3.46-10.64-3.53,16.46-6.69,31.21-10,46.83l-7.73-4.79c-.4,2.14-.71,3.83-1,5.37,4.49,1.1,8.52,2.19,12.6,3.06,3.31.7,5.53.18,6.45-4a84.41,84.41,0,0,1,5.44-16.55c8.33-18.47,11-38.08,12.18-58C465.55,534.94,464.42,530.67,463.92,526.44Zm272.6-11.15,1.76-1.54c5.35,2.31,10.9,4.24,16,7,4.12,2.26,7.36,3.05,10.35-1.31,3.6-5.24,3.41-10.46-1.48-12.85-8.93-4.37-18.22-8-27.46-11.72a4.36,4.36,0,0,0-4,1.35c-4.34,7.61-5.82,15.9-5.91,24.32l14.78,3.26C739.07,520.69,737.79,518,736.52,515.29ZM897.1,531H890c-1.81,0-3.62,0-5.43.08-5.87.35-12.93,4.73-11.54,7.44,1.67,3.27,5.76,5.31,8.86,7.83.43.34,1.15.31,1.72.5,14.38,4.56,29.2,6.5,44.05,4.4,10.58-1.5,21-4.74,31.2-8.12,5.33-1.76,5.45-5.84,1.26-8.94-4.8-3.55-21.17-5.43-27.47-2.8L950.44,538c-12.35,12-57.47,11.77-69.09-.86Zm216.74,230.61c5.9-.49,7.53-2.83,7.4-7.25-.28-9.84-.19-19.7-.3-29.55-.26-23.11-.49-46.22-.9-69.33,0-2.63-1.16-5.24-1.78-7.86l-2.52.34C1115.1,685.74,1114.47,723.52,1113.84,761.61ZM798.4,475.17l-1.39,1c.84,4,1.42,8.09,2.58,12,3.75,12.62,4.42,24.81-3.85,36.14a85.57,85.57,0,0,0-5.15,8.12c-.69,1.23-.89,2.75-1.87,6,8.5-4.86,15.49-8.63,22.17-12.88,1.43-.91,2.57-3.58,2.48-5.37-.38-7.59-1.29-15.16-2-22.74-.28-3.15-.29-6.33-.77-9.45-.37-2.42-.52-5.6-2.08-7C805.67,478.48,801.84,477.05,798.4,475.17Zm283.91,250.36c.07-.81.13-1.61.2-2.42-3.7-.48-7.41-1.5-11.08-1.36-22.5.85-45,2-67.48,3-6.83.32-13.68.47-20.48,1.09-1.56.14-3,1.89-4.44,2.9,1.46.92,2.89,1.9,4.4,2.71a3.81,3.81,0,0,0,1.79.06c26.1-1.29,52.2-2.52,78.29-3.94C1069.79,727.21,1076,726.22,1082.31,725.53ZM903.65,933.88c-5.25,11.5-2.8,17.47,8.74,21.73s23.24,3.56,34.88.51c2.38-.62,4.51-2.25,8.19-4.16-10.62,0-19.23.68-27.68-.19-8.61-.9-17.34-2.51-25.48-8.5,30.84,4.27,32.19,4.21,36.75-1.2ZM415.88,880.74l2.56-.48c2.78,7.12,2.42,15.73,9.25,21.23-2.85-14.07-.17-27.11,6.26-39.63l-1.92-1.4-10.45,8.63-1.14-.76c.91-2.5,1.82-5,2.78-7.61-5.23-1.21-8.85.79-11.12,5.15-5.64,10.84-4.08,21.74.39,32.46.61,1.45,2.52,2.36,4.66,4.26C416.67,894.32,416.27,887.53,415.88,880.74Zm25.48.09,2.61-.09c.6,4,1,8.14,1.84,12.13s.72,8.81,4.86,10l6-39.61c-7.11-.73-7,8.6-13.28,11.28,1.14-4.82,2.08-8.79,3-12.78-5.53-.24-11.89,7-13.15,14.62-1.86,11.25,1.41,23.53,6.78,25Q440.71,891.08,441.36,880.83ZM389.8,892.65l1.79-.34,2-18.13,2.06-.09c1.23,6.79-1.65,15.25,5.26,19,3-11.77,5.9-23.19,9.05-35.6L398.61,864l-.61-1,3.33-3.72c-6.91-3.72-9.1-3.2-12.06,3a29.5,29.5,0,0,0-3,8.47C385.27,878.44,384.66,886.18,389.8,892.65ZM344.66,410c-38.61,1.65-77.58-1.16-115.5,9.42C267.64,416,306.56,418.21,344.66,410Zm621.8,176.59c.69,6.09,5.24,7.26,9,8.16,9.91,2.34,19.91,4.8,30,5.75,17.47,1.66,34.78,0,51.32-6.49,5.27-2.06,6.16-3.21,6.81-7.13C1031.52,599.25,999.36,597.5,966.46,586.63ZM687.34,338.46c-6-.45-9.14,3.07-11.94,8.19-2.15,4-6.44,5.24-11,3.7-3.7-1.26-7.36-2.65-11-4,2.53,4.52,6.32,7.86,9.31,11.82,3.24,4.28,5.72,9.14,8.87,14.3C681.94,362.79,688.21,352.21,687.34,338.46ZM362.08,981.65l0,2.32a36.87,36.87,0,0,0,5.55,1.85c22.1,3.68,44.19,7.37,66.34,10.71,1.74.26,3.86-2,5.8-3.15-1.72-1.21-3.31-3.19-5.18-3.5-19.49-3.23-39-6.39-58.55-9.1C371.49,980.16,366.73,981.32,362.08,981.65ZM334.29,448.4c-29.65,3.11-60.44-1.6-88.42,12.89C275.7,459.45,304.94,453.6,334.29,448.4Zm518.34,663.12c-14.5,15.36-31.34,21.39-50.47,22.45-2.81.16-6.41,1.93-7.92,4.13-1,1.49,1,5.05,1.45,7.13,7.77-2.42,14.51-4.2,21-6.63,8.23-3.07,16.38-6.42,24.35-10.11C847.46,1125.53,850.82,1120,852.63,1111.52ZM954.4,977.93l-1.24-1.7c-6.5.59-13.06,2-19.47,1.53-7.45-.61-14.74-3.07-22.15-4.46-1.89-.35-4,.3-6,.49.57,2,.57,4.53,1.85,5.72,2.41,2.21,5.49,4.92,8.44,5.11a144,144,0,0,0,26.75-.31C946.74,983.82,950.49,980.16,954.4,977.93ZM871.4,472l-2,.73c1.2,2.93,2,6.1,3.64,8.74,7.7,12.26,17.44,20.34,33.46,18.76,10.92-1.07,22.06.09,33.1.18,2.06,0,4.12-.3,6.18-.46l.28-2.2c-2.21-.6-4.42-1.72-6.64-1.72-11.84-.05-23.69,0-35.52.4-8.37.31-14.74-2.9-19.87-9.23C879.84,482.1,875.6,477.07,871.4,472Zm87.31,520.72c-18.55,5-36.67,1.25-55.39-3.3,2.44,7.27,9.4,12,17.61,12.33C934.27,1002.32,947.79,1003,958.71,992.73Zm-14.44-76c-3.45-.95-26.22-16.21-30.75-20.53-.94,7.06-2.08,13.79-2.52,20.55-.1,1.49,2,4,3.57,4.56C924.93,925,935.11,925.93,944.27,916.77Zm-618-478.14-.25-1.9c-13.55-3.61-71.8,3.58-79.2,10.61Zm822,109.27v18.32c2.52-2.2,4.42-3.05,4.87-4.39,1.8-5.41,6.06-6.38,10.85-6.79q18-1.5,35.92-3.08c2.46-.22,4.9-.61,7.35-.92l-.08-2.27c-6-.17-12-.24-18-.52C1175.53,547.61,1161.87,553.08,1148.26,547.9Zm-898-116.25.14,2.23,78.44-8.56-.22-2C302.33,424.4,275.71,422.54,250.27,431.65Zm499.29,6.24c-4.2,2.35-7.67,6-10.6,5.65-17.17-2.3-34.21-5.55-51.3-8.47l-19.76-3.38-.36,1.84a27.58,27.58,0,0,0,4.26,1.62c20.76,4.19,41.49,8.61,62.35,12.23,4.34.75,9.45-.85,13.73-2.57C751.34,443.42,751.62,440,749.56,437.89ZM805.74,651l-5,3.7,14.77,4c1.41,6,9.93,8.82,17.21,5,1.12-.59,2.81-2.18,2.62-2.75a5.46,5.46,0,0,0-3-3.17c-6-1.94-13-.12-18-5.72-1.53-1.74-4.29-2.46-5.65-4.27-3.7-4.89-14.12-5-17.52,1.18ZM391.21,853.78c-12.46-1.37-15.66,7.63-17,18.62-1.45,12.24,1.87,20.72,8.47,22.16C379.09,879.72,382.41,866.38,391.21,853.78ZM816.06,491q1.74,13,3.47,26c1.08,8.27-2.3,14.13-9.95,17.24s-15.27,6-23.05,8.57c-3.93,1.29-5.45,3.65-4,7.09.34.81,4.66.95,6.37,0A245.6,245.6,0,0,0,812.3,535.5c4.08-2.94,9.3-7.06,10.07-11.35C824.41,512.7,821.91,501.35,816.06,491Zm132.06,531.76-1.58.17c1,21.14,1.94,42.28,3.16,63.41.13,2.13,2,4.17,3,6.25l2.11-.63A315.69,315.69,0,0,0,948.12,1022.75ZM580.26,637l.6.75,26.41-20c-20.75-4.08-41.92,11.65-49.44,19.88l33.82-15.14.55,1.14ZM603.5,245.45c-18.88-12.24-65.38-7.26-72.49,7.33C554.44,244.09,578.26,238.39,603.5,245.45ZM997.79,492.07c0-.76-.11-1.51-.16-2.27-3.47,0-7.19-.81-10.36.17-6.68,2.06-13.53,4.3-19.43,7.91-4.68,2.86-8.25,7.7-11.86,12-.92,1.11-.14,3.64-.14,7C967.74,502.93,981.69,495.63,997.79,492.07ZM586.85,231.37c-3.22-7.23-48.9-2.43-55.79,6.13Zm-54.56,34.31c20.65-9.42,42-14.64,64.84-12.51C573.22,245.78,551.52,249.76,532.29,265.68ZM364.8,626.26l2.06.92,27.48-52.85-1.68-.86C379.8,589.21,371.37,607.26,364.8,626.26Zm46.73,49.68c20.26-9.48,35.56-25.81,53.85-38.22-3.74.52-8,.64-10.71,2.77C440.07,652,425.87,664.07,411.53,675.94ZM906.14,924.45c-3.52,4.5-1.25,6.71,2.48,7.92,10.06,3.25,20.29,4.94,30.81,2.3,3-.76,6-1.6,9-2.4-.06-1-.11-2-.17-2.95C933.41,932.89,919.53,929.86,906.14,924.45ZM375.57,630.25l2.37,1.34,27.18-49.31-1.79-1C390.82,595.74,382.88,612.81,375.57,630.25Zm163-416.09-.48,2.66,58.47,9.75C578.65,215,558,217.92,538.6,214.16ZM335.35,1070.51c0,4.74-.36,8.38.18,11.88.21,1.38,3,3.75,3.62,3.47,6.13-2.62,12.05-5.71,18-8.67l-.24-2.25Zm507.2-345.7.09-.61c2,0,4.15.48,5.94-.13,2-.69,3.71-2.35,5.54-3.6-1.46-1.68-2.61-4.22-4.45-4.9-6.11-2.25-12.35-2.7-18.36.9-3.89,2.33-2.9,4.71.26,6C835,723.82,838.87,724.07,842.55,724.81Zm3.61-46.32c3.05,1.26,5,2.13,6.92,2.83,2.61.93,5.61,1.2,7.84,2.68,6.45,4.29,8.57,4.32,15.53-1.57-3.19-1.25-6.46-1.81-8.82-3.58C860.8,673.75,855.05,673.19,846.16,678.49ZM834.31,706.9c-4.16-5.94-12.71-7.74-20.23-4.07-1.26.61-2.92,2-3,3.1,0,1.22,1.36,2.79,2.53,3.65C819.33,713.72,829,712.38,834.31,706.9Zm83.43,406c2.7,5.61,12.46,6.89,26.67,3.57,4-.93,8-2.42,7.74-6.65Zm-444.6-661.5c-13.91,4.6-30.67,25.51-29.92,35.59Zm99.87,45-1.85-.24c-.81,3.15-1.26,6.47-2.57,9.4-.66,1.5-2.16,2.12-.74,4.22.86,1.28.48,3.47.49,5.26,0,8.49,0,17,0,25.48h2.27C574.26,526,572.75,511.14,573,496.41ZM866.82,713.13c3.43,5.17,19,6.29,22.8,1.38.66-.83,0-3.85-1-4.66C883.65,705.94,871.27,708,866.82,713.13ZM693.07,289.59c4.55-2.19,7.26-9.57,14.17-4,.47-5.61-.12-10.5-5.22-12.08-2.51-.78-6.61.75-8.87,2.6C688.3,280.05,691.6,284.81,693.07,289.59ZM933.51,534.8c-12.12-2.95-23.17-1.78-35.12,1C907.07,542.09,923.76,541.54,933.51,534.8Zm-397-260L586,261C566.88,259.22,551,264,536.51,274.79Zm654,257.42-30.67-7.1c-.13.61-.26,1.22-.4,1.82l10.65,3.19c.45,4.75.87,9.27,1.29,13.79,3.09-3.08,4.31-7.68,6.82-8.55,3-1,7.07,1.14,10.92,2a3.37,3.37,0,0,0,.67-1.16C1190.13,534.65,1190.35,533.09,1190.5,532.21Zm-173,22.8.64-1.83c-15.13-5.95-29.55-14.37-46.53-13.92l-.54,1.81ZM467.09,658.84,517.47,635C497.49,636.63,482.4,648.11,467.09,658.84Zm74.83-371.53c16.78-9.38,33.5-13.75,53-13.36C579.37,266.85,549.23,275.32,541.92,287.31ZM871.56,703.8c-5.65-6.89-17.4-7.74-22.77-2-2.67,2.84-.46,4.86,1.92,5.19C857.83,708,864.83,707.28,871.56,703.8Zm18.85-25.37c5.25,5.4,15.34,7.42,20.63,3.93,1.11-.73,1.92-4.25,1.26-4.92C908.26,673.29,895.38,673.93,890.41,678.43ZM442.61,666l1.08,1.09c7-5.56,13.8-11.31,21-16.62s14.83-10.36,22.27-15.52C468.33,640.16,455.09,652.56,442.61,666Zm486.11-70.83c-.13-.58-.25-1.16-.38-1.74-13.89,2.52-28.19,3.65-40.5,11.41.27.9.54,1.79.8,2.69ZM902.9,876.69c8.71,11.64,21.06,15,34.07,10ZM814.59,696.21c-3.68-7.12-12.63-7.61-20.57-1.13C797.92,701.41,806.75,701.89,814.59,696.21Zm18.27-26.86c3.78,5,14.07,7.09,18.69,3.38.87-.7.83-4.24-.08-5.12C847.76,664,836.92,665.31,832.86,669.35Zm37,20.47c5.07,4.69,14.44,6.66,19.57,3.86.94-.51,1.56-4,.89-4.68C886.65,685.34,874,685.9,869.88,689.82Zm268.06-124.5,1.78-.91c.86-5.78,1.71-11.55,2.68-18.08l-15-5.07-.86,1.91c.74.82,1.33,2,2.25,2.39,6.65,2.7,9.47,7.08,7.43,14.39C1135.76,561.46,1137.3,563.52,1137.94,565.32ZM853.35,693.83a14.43,14.43,0,0,0-21.37,0C837.9,698.79,846.36,698.91,853.35,693.83Zm-54.11-9.26c-6-2.37-11.53-3.34-17.19-1.11a4.92,4.92,0,0,0-2.78,3.34c-.07,1.12,1.31,2.88,2.49,3.44C787.06,692.77,794.88,690.42,799.24,684.57ZM948.88,519.22l2.57.13c.09-2,.21-4,.26-6,.17-7-2.08-14.64,6.34-19,.66-.34,0-3.23,0-4.94-2.06.47-5.34.29-6,1.5C947.19,499.94,947.81,509.6,948.88,519.22ZM940,582.91c-18.58,1.48-36.9,3.71-54.32,10.25l.41,2.06Zm-68.73,86c3.47,3.67,16.79,5.24,20.12,2.24.75-.68.46-4.07-.45-4.77C886.9,663.29,876,664.79,871.29,668.91Zm-15.66-12.6c-.1,6,2.1,8.23,7,7.6,2.76-.36,5.61-.35,8.24-1.11,1.57-.44,2.8-2.06,4.17-3.15-1.59-1.11-3.11-3-4.79-3.18C865.51,656,860.73,656.31,855.63,656.31ZM745,425.69c1.14,2.66,1.34,3.67,1.92,4.38,2.25,2.79,16.38,3.26,18.36.33.57-.84-.88-4.45-1.55-4.49C757.92,425.54,752.08,425.69,745,425.69Zm-147-206c-11.51-9.19-26.29-12.27-42.32-11ZM815.7,680.44c-.33.76-.65,1.53-1,2.3,1.42,1.42,2.74,3.93,4.28,4.07a86.52,86.52,0,0,0,14.57-.19c1-.07,1.84-1.7,2.75-2.62-1-.78-1.92-2.14-3-2.25C827.48,681.14,821.58,680.84,815.7,680.44Zm-52.39-3.22c4.54,4.53,10.28,5.31,16.65,2.27,1.3-.62,3.06-2.58,2.85-3.52-.31-1.35-2.21-3.25-3.49-3.29C773.63,672.47,768.08,673.32,763.31,677.22Zm35.39-4.41c4.77,8.52,12.39,9.12,20.91,1.94C813.15,669.13,806.14,672,798.7,672.81Zm332.61,75.66c6.15-4.79,5.14-21.78-1.23-26.93C1130.52,731.29,1130.92,739.88,1131.31,748.47ZM831.87,637.84c-4-4-15.7-5.94-19.49-3.64-.73.44-1.65,1.66-1.49,2.23A4.6,4.6,0,0,0,813,639C819.27,642.05,825.34,641.14,831.87,637.84ZM411.93,602.27l-2.53-1.74-20.17,30.56,2.37,1.58Zm435.34,45.86c-3.51-6.23-14.74-8.31-18.21-4.75-.57.59.74,4.48,1.36,4.53C835.58,648.29,840.77,648.13,847.27,648.13Zm43.06,54.3c3.91.85,8.46,3.27,11.85,2.16,3.23-1.07,1.77-8.64-1.84-12.7Zm-48.12-51c3.67,5.2,10.31,5.4,16.67.82C855.47,645.73,851.39,645.47,842.21,651.38Zm3.23-58.12-2,0q-2,18.66-3.92,37.31C846.52,618.7,843.8,605.72,845.44,593.26Zm-55.07,65.91c.17-.58.34-1.17.5-1.75-1.76-1.07-3.43-2.8-5.3-3.06a16.22,16.22,0,0,0-7,1.09c-1.82.6-3.4,1.94-5.08,3,1.91,1.42,3.91,4.12,5.7,4C783,662.11,786.65,660.33,790.37,659.17ZM639.76,607.82c9-4.66,19.93-5.29,26.8-13.92C657.23,597.79,646.69,599.25,639.76,607.82ZM549.21,295.09l29.73-12C567.21,283,556.87,286.26,549.21,295.09ZM915.85,606.3c-7.23,0-21,5.68-23.51,9.48C898.06,616.93,912.7,611.24,915.85,606.3Zm242-9.4c-1.09,12.22,2.72,19.8,9.72,19a37.84,37.84,0,0,0-3-5.15,46.41,46.41,0,0,0-4.63-4.4c2.41-1.81,4.29-3.22,7.11-5.32ZM785.5,667.35c7.47,4.9,11.89,4.45,17.45-1.48C795.8,661.38,792.51,661.61,785.5,667.35Zm297.79,90.36-2.11.27c-.73,1.17-2.36,2.8-2,3.46a75.1,75.1,0,0,0,6.38,10.42c.23.32,2.69-1,4.11-1.5Zm-240.22-3.42V729.76C838.23,734.17,838.11,748.35,843.07,754.29Zm-325.17-316c-9.16,2.38-19.1,14.15-16.4,18.39Zm183.34,84.37,2,1.76L719,503.05l-2-1.48ZM447.08,393.12l-1-2-26.61,12.52c.31.67.63,1.34.94,2Zm74.31,13L523,408l24.93-20.18-1.14-1.4ZM607.3,214.55c6,10.17,12.77,15.21,19.22,14.47Zm498.05,423.23.27,2.16c6.56,3.22,14.83,1.3,14.82-4.27Zm-191.53,446,2.46-.06v-26l-1.31,0ZM644.89,249.24c.5-8.19-.42-15.91-7.62-23.45Zm-11.22-6.66,1.94-.59L627,222.5l-2.28,1Q629.17,233.06,633.67,242.58ZM896,623.66c8.2,1.38,13.29-1.33,14.13-7.13-3.78,1.68-7.42,3.26-11,4.93A24.19,24.19,0,0,0,896,623.66ZM609.33,339.17c-2.55-1.82-4.06-3.75-5.44-3.66s-2.66,2.18-4,3.4c1.11,1.13,2.21,3.17,3.32,3.17C604.84,342.09,606.47,340.63,609.33,339.17Zm-104.55,90.7.88,1.63,18.93-9.56-.88-1.75Zm478,37.29c.1-1.19.21-2.37.32-3.55l-8.13-1-.4,4.2ZM568.89,745.65l.71,1.51,20.29-9.64c-.17-.38-.35-.77-.53-1.15ZM957.55,526.8l5-13.23C960.54,517.31,953.49,518.83,957.55,526.8ZM650.08,229l-2.18,1.09,5.85,11.59,1.84-1Q652.83,234.87,650.08,229Z" transform="translate(-67.33 -67.33)"/><path d="M1089,416.5l-25.08,9.17c-4.13-5.94-8.63-12.29-13-18.71a458.36,458.36,0,0,0-90.62-97.82c-26.45-21.45-54.64-40.29-85.13-55.4-38-18.87-77.87-32.92-119.65-41.1-3.74-.74-8.53.86-9.57-4.06-2.49.46-4.72,1.42-6.81,1.18-15.48-1.8-30.91-4.08-46.41-5.68a96.54,96.54,0,0,0-20.18,0c-11.36,1.23-21-3.32-31-7.32-9.07-3.6-18.7-5.77-28-8.67-4.71-1.46-9.35-3.15-14-4.74v-1.73c2.79-.73,5.53-1.85,8.36-2.14a565.86,565.86,0,0,1,85.09-2.06,477.84,477.84,0,0,1,135.68,26.92,485.64,485.64,0,0,1,114.75,58c36.8,25.31,70.53,54.08,98.66,88.8,16.29,20.1,30.67,41.74,45.87,62.72A11,11,0,0,1,1089,416.5Z" transform="translate(-67.33 -67.33)"/><path d="M1006.32,1045.87c-2.38-7.21-4.21-13.35-6.45-19.33-1.43-3.83-1-6.84,1.78-9.92,10.76-11.91,22.11-23.38,31.82-36.11,9.21-12.07,17-25.32,24.77-38.4,6.14-10.32,11.78-21,16.93-31.83q15.09-31.78,29.28-64c2.33-5.28,5.6-8.25,11.12-9.72,7.26-1.94,14.33-4.57,22.51-7.24C1111,912.05,1071.39,986.22,1006.32,1045.87Z" transform="translate(-67.33 -67.33)"/><path d="M231,847.25C203.57,762.33,196.06,677,211.73,589.7c1.34.28,2,.28,2,.44,5.37,19.27,11.31,38.41,15.72,57.89,1.72,7.6.26,16-.18,24-2.74,50.73,6,99.92,19.66,148.45,2.79,9.9,2.92,9.79-5.23,16.12C239.8,839.67,236.07,843,231,847.25Z" transform="translate(-67.33 -67.33)"/><path d="M474.73,219.88c-7,11.08-12.72,21-19.36,30.27-2.39,3.36-7.18,4.9-10.44,7.77-6.87,6.06-13.43,12.48-20.18,18.69-3.81,3.51-7.37,7.49-11.69,10.24C384.43,305,359.48,327.49,336.35,352c-8.21,8.72-15.38,18.4-23.12,27.57a5.68,5.68,0,0,1-3.41,2c-9.37.66-18.76,1.11-30.17,1.73,2.05-4.17,2.79-7.08,4.56-9.09,17.38-19.67,34.2-39.9,52.57-58.6,35.57-36.21,76.68-65.15,121.71-88.52C463.25,224.69,468.28,222.75,474.73,219.88Z" transform="translate(-67.33 -67.33)"/><path d="M578.86,1176.52c10.93,1.6,20.39,3.68,29.94,4.27,28.24,1.72,56.51,6.24,84.78,2.43,15-2,29.74-6.32,44.44-10.21,10.82-2.87,21.33-6.88,32.09-10,2.12-.63,4.79,0,7,.59,9.17,2.53,18.28,5.29,27.93,8.11-1,1-2.33,3.13-4.2,3.81-10.64,3.88-21.35,7.6-32.15,11-8,2.51-16.15,4.67-24.34,6.55-14.17,3.24-28.35,6.49-42.64,9.09-20.7,3.77-41.63,3.1-62.53,2.12-13.21-.62-26.41-1.28-39.61-2.1a99.24,99.24,0,0,1-14.19-1.83c-1.54-.32-3.66-2.14-3.93-3.57C580.36,1190.48,579.79,1184.12,578.86,1176.52Z" transform="translate(-67.33 -67.33)"/><path d="M524.54,1189.47c-8.14,1.26-12.57-.69-17-6.67-1.57.65-3.23,2-4.24,1.66-19.75-7.36-39.75-14.18-59-22.69-16.81-7.42-32.93-16.49-49-25.43-8-4.42-15.17-10.17-22.43-15.13l19.24-17.8c9,6.28,18.83,13.88,29.39,20.2a292.9,292.9,0,0,0,31,15.59c12,5.41,24.37,10.19,36.64,15.07,5.39,2.15,10.93,3.91,16.45,5.74,2.85,1,5.81,1.57,8.68,2.49,10.31,3.31,10.31,3.34,10.31,14C524.55,1180.68,524.54,1184.89,524.54,1189.47Z" transform="translate(-67.33 -67.33)"/><path d="M1148.79,660.43l18-6.49c2.64,6.37,2.41,41.51-.52,57.77-5.29-2.14-10.63-4.16-15.81-6.52-.9-.41-1.62-2.21-1.64-3.38-.14-7.82-.06-15.64-.06-23.47Z" transform="translate(-67.33 -67.33)"/><path d="M580.87,984.08c-20.94-.55-18.43-.28-19.32-17.78l20.53,2.6C581.65,974.31,581.27,979,580.87,984.08Z" transform="translate(-67.33 -67.33)"/><path d="M673.19,754.44c32.35,24.89,70.81,33.77,109.52,42.27,25.36,5.57,51,8.27,76.85,9.67,12.42.67,24.8,2.06,37.17,3.31,1.23.12,2.34,1.48,3.5,2.26-1.26.61-2.53,1.79-3.76,1.74-56.76-2.31-113.23-7-167.37-25.76-14.28-5-28-11.86-41.31-19.15-5.74-3.14-9.7-9.54-14.47-14.46Z" transform="translate(-67.33 -67.33)"/><path d="M292.44,982.4a148.91,148.91,0,0,1-19.52-31.22c-5.2-11-9.46-22.46-14.76-35.23,4.35-3,9.54-6.78,15-10.07,1-.6,4.49.53,4.74,1.44,3.45,12.59,15.33,21.48,15.6,35.31.08,4.45-1.32,8.93-1.17,13.36s1.64,9.07,2.07,13.65c.37,4,.07,8,.07,12Z" transform="translate(-67.33 -67.33)"/><path d="M1011.56,517.26c4.94,1.09,10,1.76,14.8,3.35q30.78,10.21,61.38,21c1.78.63,3,3,4.4,4.55-2.06.38-4.41,1.59-6.14,1q-35.55-11.92-70.93-24.38c-1.69-.59-3-2.33-4.46-3.54Z" transform="translate(-67.33 -67.33)"/><path d="M1044.34,486c17.54,1.51,77,19.15,80.47,25.14-6.61-1.23-12.21-1.89-17.59-3.36q-28.07-7.66-56-15.88c-2.77-.81-5.19-2.85-7.77-4.32C1043.77,487.05,1044.05,486.52,1044.34,486Z" transform="translate(-67.33 -67.33)"/><path d="M1102.48,529.82c-26.52-7.32-51.23-15.94-75.91-24.65C1035.11,501.74,1099.16,522,1102.48,529.82Z" transform="translate(-67.33 -67.33)"/><path d="M1158.79,488.19l-87.15-22.36C1083.47,462.87,1153.56,481,1158.79,488.19Z" transform="translate(-67.33 -67.33)"/><path d="M1135.45,498.22l-71.51-20.68c.18-.64.37-1.28.55-1.92L1136.28,495C1136,496.07,1135.73,497.15,1135.45,498.22Z" transform="translate(-67.33 -67.33)"/><path d="M1121.87,462.14,1103.56,459l.23-1.36,18.33,3Z" transform="translate(-67.33 -67.33)"/><path d="M628.85,380.64c4.59-.72,16.44,4.34,17.85,7.9.61,1.56,0,3.86-.69,5.55-.3.72-2.36,1.19-3.49,1C635.7,393.92,630.27,388.18,628.85,380.64Z" transform="translate(-67.33 -67.33)"/><path d="M661.48,379.08c4,5.54,2.94,8.58-5.61,16.39C651.55,390.67,653.86,383.93,661.48,379.08Z" transform="translate(-67.33 -67.33)"/><path d="M575.07,339.14c-2.43,7.27-.13,13.61,5.66,16.9,5.09,2.9,11.67,3.19,17,4.48-6.37,3.78-16,1.55-21.15-5.5C570.86,347.2,570.31,342.87,575.07,339.14Z" transform="translate(-67.33 -67.33)"/><path d="M646.41,369.19c-3.54-1.29-7.24-3.66-11-3.68s-7.32,2.34-11.69,3.91C632.47,359.72,642.61,360.16,646.41,369.19Z" transform="translate(-67.33 -67.33)"/><path d="M465,323c.23-4.91.47-9.83.73-15.2-6.75,4.21-9,11.75-7.89,25.68-1.18-.63-2.37-.89-2.94-1.63-8.06-10.26-5-30,5.67-37.41,8.84-6.14,24.18-3.34,31.72,6.49,8.2,10.7,13.12,22.15,5,35.49-1,1.58.08,4.82,1,7,1.3,3.14,3.31,6,5.41,9.63-12.74-1-26.56-14.69-25.59-25.61.41-4.59,4.54-8.85,7-13.26l2.39-4.32c-1.75-.74-3.92-2.54-5.15-2a26.53,26.53,0,0,0-9.14,5.74c-2.65,2.78-4.26,6.56-6.32,9.9Z" transform="translate(-67.33 -67.33)"/><path d="M471.59,335.74c3.64,5.53,6.32,11.12,10.39,15.37s9.75,7.42,14.69,11.05c-2.78,3.16-5.85,3-12.81-.71C474.74,356.54,469.15,345.47,471.59,335.74Z" transform="translate(-67.33 -67.33)"/><path d="M1055.05,569.3c-13.18,11.27-64.7,11.61-78.49,0,2.47-1,4.41-2,6.44-2.68C1007.2,558.41,1031.14,558.67,1055.05,569.3Zm-22.74-.58c-8.07-7-26.71-8.85-36.71-.65C1007.51,572,1019.36,571.81,1032.31,568.72Z" transform="translate(-67.33 -67.33)"/><path d="M1222.55,600.4c0,18-16.82,31.63-32,26-12-4.45-17.94-19.19-13.21-32.8,4.67-13.41,18.85-21.16,31-17C1216.76,579.54,1222.56,589.23,1222.55,600.4Zm-16-1.2c-4.07-3.33-6.22-6.27-9-7.05-3.42-1-9.11,5.32-8.37,9.31.46,2.45,4.16,6.58,4.5,6.4C1197.71,605.73,1201.32,602.92,1206.58,599.2Z" transform="translate(-67.33 -67.33)"/></svg>